<mxfile host="app.diagrams.net" agent="Mozilla/5.0 (Windows NT 10.0; Win64; x64) AppleWebKit/537.36 (KHTML, like Gecko) Chrome/135.0.0.0 Safari/537.36" version="26.2.14">
  <diagram name="Page-1" id="uFBUFSoif5vZESnWIkUe">
    <mxGraphModel dx="786" dy="498" grid="1" gridSize="10" guides="1" tooltips="1" connect="1" arrows="1" fold="1" page="1" pageScale="1" pageWidth="827" pageHeight="1169" math="0" shadow="0">
      <root>
        <mxCell id="0" />
        <mxCell id="1" parent="0" />
        <mxCell id="oP64feWh37Q6MKXG_0Qo-31" value="" style="orthogonalLoop=1;jettySize=auto;html=1;rounded=0;strokeColor=none;dashed=1;endArrow=halfCircle;endFill=0;movable=1;resizable=1;rotatable=1;deletable=1;editable=1;locked=0;connectable=1;startArrow=ERmany;startFill=0;" parent="1" edge="1">
          <mxGeometry width="80" relative="1" as="geometry">
            <mxPoint x="410" y="262" as="sourcePoint" />
            <mxPoint x="490" y="262" as="targetPoint" />
          </mxGeometry>
        </mxCell>
        <mxCell id="YQY5e5TuLYA19LUpZ7eD-1" value="" style="group" vertex="1" connectable="0" parent="1">
          <mxGeometry x="90" y="160" width="620" height="300" as="geometry" />
        </mxCell>
        <mxCell id="oP64feWh37Q6MKXG_0Qo-5" value="users" style="swimlane;fontStyle=0;childLayout=stackLayout;horizontal=1;startSize=30;horizontalStack=0;resizeParent=1;resizeParentMax=0;resizeLast=0;collapsible=1;marginBottom=0;whiteSpace=wrap;html=1;" parent="YQY5e5TuLYA19LUpZ7eD-1" vertex="1">
          <mxGeometry width="140" height="180" as="geometry" />
        </mxCell>
        <mxCell id="oP64feWh37Q6MKXG_0Qo-6" value="user_id (PK)" style="text;strokeColor=none;fillColor=none;align=left;verticalAlign=middle;spacingLeft=4;spacingRight=4;overflow=hidden;points=[[0,0.5],[1,0.5]];portConstraint=eastwest;rotatable=0;whiteSpace=wrap;html=1;" parent="oP64feWh37Q6MKXG_0Qo-5" vertex="1">
          <mxGeometry y="30" width="140" height="30" as="geometry" />
        </mxCell>
        <mxCell id="oP64feWh37Q6MKXG_0Qo-7" value="username" style="text;strokeColor=none;fillColor=none;align=left;verticalAlign=middle;spacingLeft=4;spacingRight=4;overflow=hidden;points=[[0,0.5],[1,0.5]];portConstraint=eastwest;rotatable=0;whiteSpace=wrap;html=1;" parent="oP64feWh37Q6MKXG_0Qo-5" vertex="1">
          <mxGeometry y="60" width="140" height="30" as="geometry" />
        </mxCell>
        <mxCell id="oP64feWh37Q6MKXG_0Qo-8" value="email" style="text;strokeColor=none;fillColor=none;align=left;verticalAlign=middle;spacingLeft=4;spacingRight=4;overflow=hidden;points=[[0,0.5],[1,0.5]];portConstraint=eastwest;rotatable=0;whiteSpace=wrap;html=1;" parent="oP64feWh37Q6MKXG_0Qo-5" vertex="1">
          <mxGeometry y="90" width="140" height="30" as="geometry" />
        </mxCell>
        <mxCell id="oP64feWh37Q6MKXG_0Qo-10" value="password" style="text;strokeColor=none;fillColor=none;align=left;verticalAlign=middle;spacingLeft=4;spacingRight=4;overflow=hidden;points=[[0,0.5],[1,0.5]];portConstraint=eastwest;rotatable=0;whiteSpace=wrap;html=1;" parent="oP64feWh37Q6MKXG_0Qo-5" vertex="1">
          <mxGeometry y="120" width="140" height="30" as="geometry" />
        </mxCell>
        <mxCell id="oP64feWh37Q6MKXG_0Qo-9" value="created_at" style="text;strokeColor=none;fillColor=none;align=left;verticalAlign=middle;spacingLeft=4;spacingRight=4;overflow=hidden;points=[[0,0.5],[1,0.5]];portConstraint=eastwest;rotatable=0;whiteSpace=wrap;html=1;" parent="oP64feWh37Q6MKXG_0Qo-5" vertex="1">
          <mxGeometry y="150" width="140" height="30" as="geometry" />
        </mxCell>
        <mxCell id="oP64feWh37Q6MKXG_0Qo-11" value="tasks" style="swimlane;fontStyle=0;childLayout=stackLayout;horizontal=1;startSize=30;horizontalStack=0;resizeParent=1;resizeParentMax=0;resizeLast=0;collapsible=1;marginBottom=0;whiteSpace=wrap;html=1;" parent="YQY5e5TuLYA19LUpZ7eD-1" vertex="1">
          <mxGeometry x="240" width="140" height="300" as="geometry" />
        </mxCell>
        <mxCell id="oP64feWh37Q6MKXG_0Qo-12" value="user_id (FK)" style="text;strokeColor=none;fillColor=none;align=left;verticalAlign=middle;spacingLeft=4;spacingRight=4;overflow=hidden;points=[[0,0.5],[1,0.5]];portConstraint=eastwest;rotatable=0;whiteSpace=wrap;html=1;" parent="oP64feWh37Q6MKXG_0Qo-11" vertex="1">
          <mxGeometry y="30" width="140" height="30" as="geometry" />
        </mxCell>
        <mxCell id="oP64feWh37Q6MKXG_0Qo-13" value="task_id (PK)" style="text;strokeColor=none;fillColor=none;align=left;verticalAlign=middle;spacingLeft=4;spacingRight=4;overflow=hidden;points=[[0,0.5],[1,0.5]];portConstraint=eastwest;rotatable=0;whiteSpace=wrap;html=1;" parent="oP64feWh37Q6MKXG_0Qo-11" vertex="1">
          <mxGeometry y="60" width="140" height="30" as="geometry" />
        </mxCell>
        <mxCell id="oP64feWh37Q6MKXG_0Qo-14" value="tittle&amp;nbsp;" style="text;strokeColor=none;fillColor=none;align=left;verticalAlign=middle;spacingLeft=4;spacingRight=4;overflow=hidden;points=[[0,0.5],[1,0.5]];portConstraint=eastwest;rotatable=0;whiteSpace=wrap;html=1;" parent="oP64feWh37Q6MKXG_0Qo-11" vertex="1">
          <mxGeometry y="90" width="140" height="30" as="geometry" />
        </mxCell>
        <mxCell id="oP64feWh37Q6MKXG_0Qo-20" value="description" style="text;strokeColor=none;fillColor=none;align=left;verticalAlign=middle;spacingLeft=4;spacingRight=4;overflow=hidden;points=[[0,0.5],[1,0.5]];portConstraint=eastwest;rotatable=0;whiteSpace=wrap;html=1;" parent="oP64feWh37Q6MKXG_0Qo-11" vertex="1">
          <mxGeometry y="120" width="140" height="30" as="geometry" />
        </mxCell>
        <mxCell id="oP64feWh37Q6MKXG_0Qo-19" value="status" style="text;strokeColor=none;fillColor=none;align=left;verticalAlign=middle;spacingLeft=4;spacingRight=4;overflow=hidden;points=[[0,0.5],[1,0.5]];portConstraint=eastwest;rotatable=0;whiteSpace=wrap;html=1;" parent="oP64feWh37Q6MKXG_0Qo-11" vertex="1">
          <mxGeometry y="150" width="140" height="30" as="geometry" />
        </mxCell>
        <mxCell id="oP64feWh37Q6MKXG_0Qo-18" value="priority&amp;nbsp;" style="text;strokeColor=none;fillColor=none;align=left;verticalAlign=middle;spacingLeft=4;spacingRight=4;overflow=hidden;points=[[0,0.5],[1,0.5]];portConstraint=eastwest;rotatable=0;whiteSpace=wrap;html=1;" parent="oP64feWh37Q6MKXG_0Qo-11" vertex="1">
          <mxGeometry y="180" width="140" height="30" as="geometry" />
        </mxCell>
        <mxCell id="oP64feWh37Q6MKXG_0Qo-17" value="due_date" style="text;strokeColor=none;fillColor=none;align=left;verticalAlign=middle;spacingLeft=4;spacingRight=4;overflow=hidden;points=[[0,0.5],[1,0.5]];portConstraint=eastwest;rotatable=0;whiteSpace=wrap;html=1;" parent="oP64feWh37Q6MKXG_0Qo-11" vertex="1">
          <mxGeometry y="210" width="140" height="30" as="geometry" />
        </mxCell>
        <mxCell id="oP64feWh37Q6MKXG_0Qo-16" value="created_at" style="text;strokeColor=none;fillColor=none;align=left;verticalAlign=middle;spacingLeft=4;spacingRight=4;overflow=hidden;points=[[0,0.5],[1,0.5]];portConstraint=eastwest;rotatable=0;whiteSpace=wrap;html=1;" parent="oP64feWh37Q6MKXG_0Qo-11" vertex="1">
          <mxGeometry y="240" width="140" height="30" as="geometry" />
        </mxCell>
        <mxCell id="oP64feWh37Q6MKXG_0Qo-15" value="updated_at" style="text;strokeColor=none;fillColor=none;align=left;verticalAlign=middle;spacingLeft=4;spacingRight=4;overflow=hidden;points=[[0,0.5],[1,0.5]];portConstraint=eastwest;rotatable=0;whiteSpace=wrap;html=1;" parent="oP64feWh37Q6MKXG_0Qo-11" vertex="1">
          <mxGeometry y="270" width="140" height="30" as="geometry" />
        </mxCell>
        <mxCell id="oP64feWh37Q6MKXG_0Qo-21" value="categories" style="swimlane;fontStyle=0;childLayout=stackLayout;horizontal=1;startSize=30;horizontalStack=0;resizeParent=1;resizeParentMax=0;resizeLast=0;collapsible=1;marginBottom=0;whiteSpace=wrap;html=1;" parent="YQY5e5TuLYA19LUpZ7eD-1" vertex="1">
          <mxGeometry x="480" width="140" height="120" as="geometry" />
        </mxCell>
        <mxCell id="oP64feWh37Q6MKXG_0Qo-22" value="category_id (PK)" style="text;strokeColor=none;fillColor=none;align=left;verticalAlign=middle;spacingLeft=4;spacingRight=4;overflow=hidden;points=[[0,0.5],[1,0.5]];portConstraint=eastwest;rotatable=0;whiteSpace=wrap;html=1;" parent="oP64feWh37Q6MKXG_0Qo-21" vertex="1">
          <mxGeometry y="30" width="140" height="30" as="geometry" />
        </mxCell>
        <mxCell id="oP64feWh37Q6MKXG_0Qo-23" value="name" style="text;strokeColor=none;fillColor=none;align=left;verticalAlign=middle;spacingLeft=4;spacingRight=4;overflow=hidden;points=[[0,0.5],[1,0.5]];portConstraint=eastwest;rotatable=0;whiteSpace=wrap;html=1;" parent="oP64feWh37Q6MKXG_0Qo-21" vertex="1">
          <mxGeometry y="60" width="140" height="30" as="geometry" />
        </mxCell>
        <mxCell id="oP64feWh37Q6MKXG_0Qo-24" value="description" style="text;strokeColor=none;fillColor=none;align=left;verticalAlign=middle;spacingLeft=4;spacingRight=4;overflow=hidden;points=[[0,0.5],[1,0.5]];portConstraint=eastwest;rotatable=0;whiteSpace=wrap;html=1;" parent="oP64feWh37Q6MKXG_0Qo-21" vertex="1">
          <mxGeometry y="90" width="140" height="30" as="geometry" />
        </mxCell>
        <mxCell id="oP64feWh37Q6MKXG_0Qo-32" value="" style="endArrow=ERmany;html=1;rounded=0;startArrow=ERmany;startFill=0;endFill=0;" parent="YQY5e5TuLYA19LUpZ7eD-1" edge="1">
          <mxGeometry relative="1" as="geometry">
            <mxPoint x="380" y="50" as="sourcePoint" />
            <mxPoint x="480" y="50" as="targetPoint" />
          </mxGeometry>
        </mxCell>
        <mxCell id="oP64feWh37Q6MKXG_0Qo-33" value="Label" style="edgeLabel;resizable=0;html=1;;align=center;verticalAlign=middle;" parent="oP64feWh37Q6MKXG_0Qo-32" connectable="0" vertex="1">
          <mxGeometry relative="1" as="geometry" />
        </mxCell>
        <mxCell id="oP64feWh37Q6MKXG_0Qo-34" value="" style="endArrow=ERmany;html=1;rounded=0;startArrow=ERmany;startFill=0;endFill=0;" parent="YQY5e5TuLYA19LUpZ7eD-1" edge="1">
          <mxGeometry relative="1" as="geometry">
            <mxPoint x="140" y="50" as="sourcePoint" />
            <mxPoint x="240" y="50" as="targetPoint" />
          </mxGeometry>
        </mxCell>
        <mxCell id="oP64feWh37Q6MKXG_0Qo-35" value="Label" style="edgeLabel;resizable=0;html=1;;align=center;verticalAlign=middle;" parent="oP64feWh37Q6MKXG_0Qo-34" connectable="0" vertex="1">
          <mxGeometry relative="1" as="geometry" />
        </mxCell>
      </root>
    </mxGraphModel>
  </diagram>
</mxfile>
